<svg xmlns="http://www.w3.org/2000/svg" width="1400" height="900" viewBox="0 0 1400 900" role="img" aria-label="OpenClaw Web UI preview">
  <defs>
    <linearGradient id="bg" x1="0" x2="1" y1="0" y2="1">
      <stop offset="0%" stop-color="#091120"/>
      <stop offset="60%" stop-color="#12223e"/>
      <stop offset="100%" stop-color="#2b3c73"/>
    </linearGradient>
  </defs>
  <rect width="1400" height="900" fill="url(#bg)"/>
  <rect x="48" y="48" width="1304" height="804" rx="28" fill="#0f172a" fill-opacity="0.82" stroke="#ffffff" stroke-opacity="0.12"/>
  <rect x="76" y="76" width="320" height="748" rx="22" fill="#121d34"/>
  <rect x="420" y="76" width="904" height="748" rx="22" fill="#0f1b2f"/>
  <text x="104" y="124" fill="#f8fafc" font-family="Arial, sans-serif" font-size="30" font-weight="700">OpenClaw Web</text>
  <text x="104" y="154" fill="#94a3b8" font-family="Arial, sans-serif" font-size="16">Task mode · multimodal handling · guest sessions</text>
  <rect x="104" y="196" width="264" height="44" rx="14" fill="#17263f"/>
  <rect x="104" y="268" width="264" height="112" rx="18" fill="#17263f"/>
  <rect x="104" y="396" width="264" height="112" rx="18" fill="#17263f"/>
  <rect x="104" y="524" width="264" height="112" rx="18" fill="#17263f"/>
  <rect x="448" y="108" width="260" height="22" rx="11" fill="#f8fafc" fill-opacity="0.9"/>
  <rect x="448" y="146" width="380" height="16" rx="8" fill="#94a3b8" fill-opacity="0.7"/>
  <rect x="448" y="220" width="520" height="120" rx="22" fill="#1e293b"/>
  <rect x="804" y="372" width="430" height="130" rx="22" fill="#4f46e5"/>
  <rect x="448" y="536" width="560" height="120" rx="22" fill="#1e293b"/>
  <rect x="448" y="700" width="748" height="76" rx="18" fill="#17263f"/>
  <g fill="#cbd5e1">
    <rect x="472" y="246" width="220" height="14" rx="7"/>
    <rect x="472" y="274" width="420" height="12" rx="6" fill-opacity="0.72"/>
    <rect x="472" y="298" width="350" height="12" rx="6" fill-opacity="0.58"/>
    <rect x="828" y="398" width="150" height="14" rx="7" fill="#ffffff" fill-opacity="0.95"/>
    <rect x="828" y="426" width="330" height="12" rx="6" fill="#ffffff" fill-opacity="0.78"/>
    <rect x="828" y="450" width="280" height="12" rx="6" fill="#ffffff" fill-opacity="0.62"/>
    <rect x="472" y="562" width="240" height="14" rx="7"/>
    <rect x="472" y="590" width="470" height="12" rx="6" fill-opacity="0.72"/>
    <rect x="472" y="614" width="390" height="12" rx="6" fill-opacity="0.58"/>
  </g>
</svg>
